<svg id="De-Sprinkhaan-Logo-Color" xmlns="http://www.w3.org/2000/svg" width="133.677" height="45" viewBox="0 0 133.677 45">
  <path id="Path_373" data-name="Path 373" d="M52.88,52.231c.82.428,1.109.847,1.106,1.1,0,.195-.2.405-.517.564-1.095.54-3.273.385-5.47-1.234a63.275,63.275,0,0,1-9.835-9.812.138.138,0,0,1,.193-.2A93.268,93.268,0,0,0,52.88,52.231Z" transform="translate(-12.898 -14.416)" fill="#f7941d"/>
  <path id="Path_374" data-name="Path 374" d="M39.993,53.4a45.628,45.628,0,0,0,4.1,3.641,68.784,68.784,0,0,1-8.478-.126,10.068,10.068,0,0,1-5.4-2.1.275.275,0,0,1,.165-.493,64.629,64.629,0,0,0,7.745-.629C38.718,53.6,39.343,53.508,39.993,53.4Z" transform="translate(-10.184 -18.061)" fill="#8dc63f"/>
  <path id="Path_375" data-name="Path 375" d="M67.98,52.577A.249.249,0,0,1,68,53.06c-1.2.349-2.685.736-4.413,1.1-.909.193-1.925.388-3.035.571a3.749,3.749,0,0,0-1.609-1.445c-1.621-.844-3.188-1.743-4.683-2.661,1.517-.41,3.1-.9,4.707-1.476A34.375,34.375,0,0,0,67.98,52.577Z" transform="translate(-18.352 -16.625)" fill="#8dc63f"/>
  <path id="Path_376" data-name="Path 376" d="M59.293,39.764a.25.25,0,0,1-.2.454,35.261,35.261,0,0,1-9.112-4.087,53.274,53.274,0,0,1-10.329-8.567,71.99,71.99,0,0,1-7.716-9.693.209.209,0,0,1,.251-.309,72.352,72.352,0,0,1,11.428,5.472,24.434,24.434,0,0,0,4.5,7.525A41.433,41.433,0,0,0,55,36.879C56.528,38.015,58,38.98,59.293,39.764Z" transform="translate(-10.79 -5.935)" fill="#f7941d"/>
  <path id="Path_377" data-name="Path 377" d="M86.392,45.7l-.082.033a3.773,3.773,0,0,1-4.919-2.082c-.43-1.073-.833-2.154-1.2-3.212a1.44,1.44,0,0,1,.592-1.686c1.119-.713,2.314-1.547,3.2-2.184a.522.522,0,0,1,.81.293A60.293,60.293,0,0,1,86.392,45.7Z" transform="translate(-27.098 -12.334)" fill="#8dc63f"/>
  <path id="Path_378" data-name="Path 378" d="M68.424,34.677a.25.25,0,0,1-.347.329,55.765,55.765,0,0,1-6.2-3.979,40.074,40.074,0,0,1-6.65-6.113,22.375,22.375,0,0,1-4.555-8.009,16.9,16.9,0,0,1,1.8-13.421.211.211,0,0,1,.372.007Z" transform="translate(-16.912 -1.142)" fill="#f7941d"/>
  <path id="Path_379" data-name="Path 379" d="M85.369,35.416a1.282,1.282,0,0,1-.8,1.315l-.089.036a5.066,5.066,0,0,1-3.9-.028,5.025,5.025,0,0,1-2.728-2.775c-.439-1.094-.849-2.2-1.22-3.273a2.732,2.732,0,0,1,1.124-3.2c1.315-.838,2.738-1.847,3.624-2.491a.877.877,0,0,0,.32-.984c-.932-2.85-3.839-10.973-8.315-16.545a.647.647,0,0,1,.1-.913.656.656,0,0,1,.919.1c4.764,5.931,7.715,14.372,8.6,17.134l.277.9a66.783,66.783,0,0,1,1.883,9.441,6.666,6.666,0,0,1-1.189.34c.143.189.544.3,1.292.182,0,0,.081.565.1.762Zm-1.384.148.082-.033a60.294,60.294,0,0,0-1.593-8.838.522.522,0,0,0-.81-.293c-.889.637-2.083,1.471-3.2,2.184a1.44,1.44,0,0,0-.592,1.687c.364,1.058.766,2.139,1.2,3.212a3.773,3.773,0,0,0,4.919,2.082Z" transform="translate(-24.773 -2.169)"/>
  <path id="Path_380" data-name="Path 380" d="M20.761,22.635l.031.005.031.007.027.008.035.011.023.008.039.018.014.006.005,0,.039.023.016.009.032.023a.725.725,0,0,1,.069.058A97.923,97.923,0,0,0,34.394,33.052c1.511-.376,3.1-.831,4.722-1.379q-.317-.19-.632-.385A54.6,54.6,0,0,1,27.892,22.5a70.17,70.17,0,0,1-9.189-12,.647.647,0,0,1,.065-.735.658.658,0,0,1,.715-.2,74.333,74.333,0,0,1,12.8,5.715C31.065,10.33,32.068,5.3,35.267.3A.656.656,0,0,1,36.4.361L53.913,35.42a.5.5,0,0,1,.021.047,1.4,1.4,0,0,0,.259.435c.14.153.315.34.523.546a8.727,8.727,0,0,0,4.276,2.591,23.885,23.885,0,0,0,2.775.212,8.628,8.628,0,0,0,1.324-.077.653.653,0,0,1,.75.58.665.665,0,0,1-.574.708,9.828,9.828,0,0,1-1.414.088,24.143,24.143,0,0,1-3.051-.226c-2.539-.375-4.853-2.73-5.676-3.657A48.828,48.828,0,0,1,48.4,38.126c-.211.524-.921,2.3-1.7,4.335a.7.7,0,0,1-.041.088c-.093.164-1,1.621-4.161,2.431a.666.666,0,0,1-.163.021.65.65,0,0,1-.163-1.28,5.826,5.826,0,0,0,3.331-1.788c.52-1.362,1.008-2.6,1.335-3.421q-.623.145-1.3.29c-.962.2-2.042.411-3.225.6a2.163,2.163,0,0,1-1.166,1.234,4.49,4.49,0,0,1-1.979.414,6.537,6.537,0,0,1-1.034-.085,8.206,8.206,0,0,1-2.385-.8c-1.6.113-3.3.181-5.077.181s-3.5-.063-5.345-.205a11.387,11.387,0,0,1-7.892-4.118l-.019-.024a.667.667,0,0,1-.14-.567.654.654,0,0,1,.674-.5,56.758,56.758,0,0,0,9.837-.6c.29-.041.588-.086.893-.133a75.587,75.587,0,0,1-7.968-9.641c-.687,1.247-2.008,3.548-3.783,6.171-2.46,3.634-6.324,8.657-10.764,11.944l-.035.024a5.777,5.777,0,0,1-2.98.7,9.427,9.427,0,0,1-2.69-.415.65.65,0,1,1,.375-1.245,7.238,7.238,0,0,0,3.481.251,3.749,3.749,0,0,0,1.09-.371c8.223-6.1,14.605-18.509,14.668-18.633l.008-.013.019-.034.015-.022.02-.028.019-.024.019-.021.024-.026.018-.016.029-.025,0,0,.014-.01.031-.022.024-.015.028-.016.033-.016.021-.01.045-.017.012,0a.718.718,0,0,1,.119-.027l.025,0,.034,0h.06a.233.233,0,0,1,.032,0l.029,0Zm30.4,11.229a.25.25,0,0,0,.347-.329L35.938,2.349a.211.211,0,0,0-.372-.007,16.9,16.9,0,0,0-1.8,13.421,22.377,22.377,0,0,0,4.555,8.009,40.074,40.074,0,0,0,6.65,6.113A55.761,55.761,0,0,0,51.165,33.864Zm-1.519,2.571a.249.249,0,0,0-.018-.483,34.377,34.377,0,0,1-9.015-3.425C39,33.106,37.423,33.593,35.906,34c1.5.918,3.063,1.817,4.683,2.661A3.749,3.749,0,0,1,42.2,38.109c1.11-.183,2.126-.378,3.035-.571C46.961,37.171,48.447,36.784,49.646,36.435ZM48.3,34.283a.25.25,0,0,0,.2-.454c-1.291-.785-2.764-1.749-4.295-2.886a41.433,41.433,0,0,1-6.878-6.319,24.433,24.433,0,0,1-4.5-7.524A72.358,72.358,0,0,0,21.4,11.627a.209.209,0,0,0-.251.309,71.984,71.984,0,0,0,7.716,9.693A53.277,53.277,0,0,0,39.192,30.2,35.264,35.264,0,0,0,48.3,34.283Zm-7.215,4.63c0-.251-.286-.67-1.106-1.1A93.272,93.272,0,0,1,25.46,28.236a.138.138,0,0,0-.193.2A63.271,63.271,0,0,0,35.1,38.243c2.2,1.618,4.375,1.774,5.47,1.234C40.894,39.318,41.087,39.108,41.089,38.913Zm-7.177.065a45.637,45.637,0,0,1-4.1-3.641c-.651.11-1.275.207-1.867.29a64.643,64.643,0,0,1-7.745.629.275.275,0,0,0-.165.493,10.069,10.069,0,0,0,5.4,2.1A68.783,68.783,0,0,0,33.913,38.978Z" transform="translate(0)"/>
  <path id="Path_381" data-name="Path 381" d="M99.418,45.138a9.745,9.745,0,0,0,.957.29,5.142,5.142,0,0,0,1.221.124,2.636,2.636,0,0,0,1.7-.462,1.532,1.532,0,0,0,.562-1.248,1.677,1.677,0,0,0-.118-.662,1.274,1.274,0,0,0-.354-.476,2.619,2.619,0,0,0-.59-.365q-.353-.165-.825-.359l-.791-.317a5.467,5.467,0,0,1-.735-.365,2.257,2.257,0,0,1-.576-.49,2.211,2.211,0,0,1-.382-.669,2.633,2.633,0,0,1-.139-.9,2.41,2.41,0,0,1,.86-1.965,3.692,3.692,0,0,1,2.415-.71,6.934,6.934,0,0,1,1.263.11,6.7,6.7,0,0,1,1.055.276,4.306,4.306,0,0,1-.305,1.145,6.914,6.914,0,0,0-.868-.248,5.134,5.134,0,0,0-1.117-.11,2.22,2.22,0,0,0-1.346.352,1.232,1.232,0,0,0-.472,1.055,1.106,1.106,0,0,0,.118.517,1.379,1.379,0,0,0,.312.4,2.273,2.273,0,0,0,.458.31,5.066,5.066,0,0,0,.555.248l.777.3a8.239,8.239,0,0,1,.985.462,3.049,3.049,0,0,1,.735.565,2.185,2.185,0,0,1,.465.766,3.053,3.053,0,0,1,.159,1.034,2.761,2.761,0,0,1-.985,2.241,4.194,4.194,0,0,1-2.762.821q-.43,0-.777-.028a6.278,6.278,0,0,1-.645-.083,5.494,5.494,0,0,1-.576-.138q-.278-.083-.569-.179a3.072,3.072,0,0,1,.125-.621Q99.307,45.441,99.418,45.138Z" transform="translate(-33.514 -12.366)" fill="#231f20"/>
  <path id="Path_382" data-name="Path 382" d="M111.079,41.018a2.822,2.822,0,0,1,.285-.041c.1-.009.2-.014.3-.014s.189,0,.291.014a2.745,2.745,0,0,1,.291.041.834.834,0,0,1,.035.172q.021.145.042.31t.042.317a1.906,1.906,0,0,1,.021.193,2.853,2.853,0,0,1,.333-.428,2.225,2.225,0,0,1,.465-.372,2.445,2.445,0,0,1,.611-.262,2.76,2.76,0,0,1,.756-.1,3.182,3.182,0,0,1,1.159.207,2.315,2.315,0,0,1,.916.641,3.072,3.072,0,0,1,.6,1.1,5.172,5.172,0,0,1,.215,1.579,3.931,3.931,0,0,1-.992,2.848,3.725,3.725,0,0,1-2.811,1.028,4.849,4.849,0,0,1-.624-.041,3.688,3.688,0,0,1-.555-.11v3.241c-.111.018-.229.032-.354.041s-.238.014-.339.014-.215,0-.34-.014a3.279,3.279,0,0,1-.34-.041Zm1.374,5.917a2.749,2.749,0,0,0,.541.138,5.081,5.081,0,0,0,.721.041,2.552,2.552,0,0,0,.916-.159,1.817,1.817,0,0,0,.715-.49,2.391,2.391,0,0,0,.472-.834,3.667,3.667,0,0,0,.173-1.193,3.257,3.257,0,0,0-.409-1.752,1.463,1.463,0,0,0-1.339-.648,1.819,1.819,0,0,0-.666.124,1.641,1.641,0,0,0-.569.372,1.827,1.827,0,0,0-.4.628,2.413,2.413,0,0,0-.153.9Z" transform="translate(-37.571 -13.818)" fill="#231f20"/>
  <path id="Path_383" data-name="Path 383" d="M123.347,41.074c.1-.018.2-.032.291-.041s.19-.014.291-.014.2,0,.306.014a2.232,2.232,0,0,1,.277.041q.042.207.083.545a4.8,4.8,0,0,1,.042.572,2.85,2.85,0,0,1,.77-.814,2.048,2.048,0,0,1,1.228-.345c.074,0,.15,0,.229.007a1.96,1.96,0,0,1,.2.021,2.215,2.215,0,0,1,.042.262,2.892,2.892,0,0,1,.014.29,2.988,2.988,0,0,1-.021.345q-.021.179-.049.345a.942.942,0,0,0-.229-.028h-.187a2.446,2.446,0,0,0-.715.1,1.493,1.493,0,0,0-.61.365,1.813,1.813,0,0,0-.43.717,3.6,3.6,0,0,0-.159,1.172V48.15a3.277,3.277,0,0,1-.34.041c-.125.009-.238.014-.34.014s-.215,0-.34-.014-.243-.023-.353-.041Z" transform="translate(-41.72 -13.874)" fill="#231f20"/>
  <path id="Path_384" data-name="Path 384" d="M131.161,40.642h-.9a1.729,1.729,0,0,1-.042-.255q-.014-.145-.014-.283t.014-.283a1.729,1.729,0,0,1,.042-.255h2.248v7.076a3.276,3.276,0,0,1-.34.041c-.124.009-.238.014-.34.014s-.2,0-.326-.014a3.277,3.277,0,0,1-.34-.041Zm-.305-2.634a2.769,2.769,0,0,1-.035-.359c0-.129-.007-.244-.007-.345s0-.216.007-.345a2.4,2.4,0,0,1,.035-.345q.18-.028.388-.041c.138-.009.259-.014.361-.014s.222,0,.361.014.264.023.375.041a2.4,2.4,0,0,1,.035.345c0,.129.007.244.007.345s0,.216-.007.345a2.766,2.766,0,0,1-.035.359c-.111.018-.234.032-.367.041s-.252.014-.354.014-.236,0-.375-.014S130.975,38.026,130.855,38.007Z" transform="translate(-44.039 -12.366)" fill="#231f20"/>
  <path id="Path_385" data-name="Path 385" d="M136.934,41.018c.1-.018.2-.032.3-.041s.2-.014.3-.014a2.741,2.741,0,0,1,.285.014c.088.009.183.023.285.041q.042.207.083.559a5.138,5.138,0,0,1,.042.586,2.866,2.866,0,0,1,.353-.469,2.727,2.727,0,0,1,.493-.421,2.547,2.547,0,0,1,1.429-.421,2.221,2.221,0,0,1,1.8.7,3.147,3.147,0,0,1,.582,2.062v4.483a3.26,3.26,0,0,1-.347.041c-.13.009-.245.014-.347.014s-.215,0-.34-.014a3.3,3.3,0,0,1-.34-.041v-4.11a2.665,2.665,0,0,0-.305-1.441,1.079,1.079,0,0,0-.971-.462,1.97,1.97,0,0,0-.735.138,1.636,1.636,0,0,0-.611.428,2.136,2.136,0,0,0-.423.752,3.412,3.412,0,0,0-.159,1.11v3.586a3.294,3.294,0,0,1-.34.041c-.125.009-.238.014-.34.014s-.217,0-.347-.014a3.259,3.259,0,0,1-.347-.041Z" transform="translate(-46.316 -13.818)" fill="#231f20"/>
  <path id="Path_386" data-name="Path 386" d="M148.843,36.489a3.277,3.277,0,0,1,.34-.041q.187-.014.34-.014c.1,0,.218,0,.347.014a3.279,3.279,0,0,1,.347.041V46.6a3.3,3.3,0,0,1-.347.041c-.129.009-.245.014-.347.014s-.215,0-.34-.014a3.294,3.294,0,0,1-.34-.041Zm1.748,6.441,2.262-3.407c.12-.018.24-.032.361-.041s.245-.014.375-.014.271,0,.4.014.252.023.381.041l-2.262,3.31,2.651,3.765q-.195.028-.375.041t-.375.014q-.194,0-.388-.014c-.13-.009-.259-.023-.388-.041Z" transform="translate(-50.344 -12.323)" fill="#231f20"/>
  <path id="Path_387" data-name="Path 387" d="M159.559,36.489a3.263,3.263,0,0,1,.339-.041c.125-.009.238-.014.34-.014s.218,0,.347.014a3.279,3.279,0,0,1,.347.041V40.6a4.015,4.015,0,0,1,.312-.414,2.339,2.339,0,0,1,.458-.407,2.458,2.458,0,0,1,1.409-.421,2.241,2.241,0,0,1,1.811.7,3.121,3.121,0,0,1,.59,2.062V46.6a3.279,3.279,0,0,1-.339.041c-.125.009-.238.014-.34.014s-.215,0-.34-.014a3.3,3.3,0,0,1-.34-.041v-4.11a2.532,2.532,0,0,0-.326-1.441,1.134,1.134,0,0,0-.993-.462,2.024,2.024,0,0,0-.721.131,1.6,1.6,0,0,0-.611.414,2,2,0,0,0-.416.738,3.491,3.491,0,0,0-.152,1.1V46.6a3.3,3.3,0,0,1-.347.041c-.129.009-.245.014-.347.014s-.2,0-.333-.014a3.259,3.259,0,0,1-.347-.041Z" transform="translate(-53.968 -12.323)" fill="#231f20"/>
  <path id="Path_388" data-name="Path 388" d="M175.107,43.432a1.342,1.342,0,0,0-.416-1.131,1.964,1.964,0,0,0-1.207-.317,5.154,5.154,0,0,0-.909.076,7,7,0,0,0-.826.2,2.142,2.142,0,0,1-.263-1.09,6.414,6.414,0,0,1,1.041-.234,7.611,7.611,0,0,1,1.1-.083,3.128,3.128,0,0,1,2.11.628,2.527,2.527,0,0,1,.721,2.007v4.427q-.485.11-1.179.228a8.482,8.482,0,0,1-1.416.117,5.577,5.577,0,0,1-1.228-.124,2.517,2.517,0,0,1-.93-.4,1.861,1.861,0,0,1-.59-.7A2.343,2.343,0,0,1,170.9,46a2.132,2.132,0,0,1,.243-1.041,2.18,2.18,0,0,1,.659-.745,2.951,2.951,0,0,1,.958-.441,4.386,4.386,0,0,1,1.138-.145q.444,0,.729.021t.478.048Zm0,1.338c-.139-.018-.314-.037-.527-.055s-.393-.028-.541-.028a2.268,2.268,0,0,0-1.311.317,1.1,1.1,0,0,0-.451.965,1.179,1.179,0,0,0,.153.648,1.05,1.05,0,0,0,.382.359,1.322,1.322,0,0,0,.506.152c.185.018.361.028.527.028a6.55,6.55,0,0,0,.659-.034,4,4,0,0,0,.6-.1Z" transform="translate(-57.805 -13.818)" fill="#231f20"/>
  <path id="Path_389" data-name="Path 389" d="M185.822,43.432a1.342,1.342,0,0,0-.416-1.131,1.967,1.967,0,0,0-1.208-.317,5.151,5.151,0,0,0-.909.076,7,7,0,0,0-.826.2,2.142,2.142,0,0,1-.263-1.09,6.4,6.4,0,0,1,1.041-.234,7.611,7.611,0,0,1,1.1-.083,3.127,3.127,0,0,1,2.109.628,2.527,2.527,0,0,1,.722,2.007v4.427q-.485.11-1.18.228a8.474,8.474,0,0,1-1.415.117,5.577,5.577,0,0,1-1.228-.124,2.516,2.516,0,0,1-.93-.4,1.849,1.849,0,0,1-.59-.7A2.342,2.342,0,0,1,181.617,46a2.132,2.132,0,0,1,.243-1.041,2.18,2.18,0,0,1,.659-.745,2.951,2.951,0,0,1,.958-.441,4.381,4.381,0,0,1,1.138-.145q.445,0,.729.021t.479.048Zm0,1.338q-.208-.028-.527-.055c-.213-.018-.393-.028-.541-.028a2.267,2.267,0,0,0-1.311.317,1.1,1.1,0,0,0-.451.965,1.179,1.179,0,0,0,.153.648,1.054,1.054,0,0,0,.381.359,1.329,1.329,0,0,0,.507.152q.277.028.527.028a6.551,6.551,0,0,0,.659-.034,4,4,0,0,0,.6-.1Z" transform="translate(-61.429 -13.818)" fill="#231f20"/>
  <path id="Path_390" data-name="Path 390" d="M193,41.018c.1-.018.2-.032.3-.041s.2-.014.3-.014a2.729,2.729,0,0,1,.284.014c.088.009.183.023.285.041q.042.207.083.559a5.142,5.142,0,0,1,.042.586,2.832,2.832,0,0,1,.354-.469,2.722,2.722,0,0,1,.492-.421,2.551,2.551,0,0,1,1.429-.421,2.22,2.22,0,0,1,1.8.7,3.147,3.147,0,0,1,.583,2.062v4.483a3.3,3.3,0,0,1-.347.041c-.129.009-.245.014-.347.014s-.215,0-.34-.014a3.28,3.28,0,0,1-.339-.041v-4.11a2.664,2.664,0,0,0-.306-1.441,1.078,1.078,0,0,0-.971-.462,1.974,1.974,0,0,0-.736.138,1.634,1.634,0,0,0-.61.428,2.137,2.137,0,0,0-.424.752,3.413,3.413,0,0,0-.159,1.11v3.586a3.3,3.3,0,0,1-.34.041c-.125.009-.238.014-.34.014s-.217,0-.347-.014a3.281,3.281,0,0,1-.347-.041Z" transform="translate(-65.281 -13.818)" fill="#231f20"/>
  <path id="Path_391" data-name="Path 391" d="M99.7,17.55q.472-.055,1.138-.1t1.3-.048a5.264,5.264,0,0,1,3.92,1.324,5.216,5.216,0,0,1,1.3,3.807,5.181,5.181,0,0,1-1.325,3.848,5.545,5.545,0,0,1-3.948,1.255q-.652,0-1.29-.048t-1.1-.117Zm1.415,8.758q.195.028.479.048t.6.021a5.589,5.589,0,0,0,1.492-.186,2.811,2.811,0,0,0,1.159-.628,2.852,2.852,0,0,0,.749-1.193,5.746,5.746,0,0,0,.264-1.883,5.217,5.217,0,0,0-.264-1.765,3.074,3.074,0,0,0-.743-1.193,2.83,2.83,0,0,0-1.145-.669,4.94,4.94,0,0,0-1.47-.207q-.264,0-.576.007a3.677,3.677,0,0,0-.548.048Z" transform="translate(-33.721 -5.885)" fill="#231f20"/>
  <path id="Path_392" data-name="Path 392" d="M114.848,25.712a2.3,2.3,0,0,0,.6,1.7,2.4,2.4,0,0,0,1.7.538,5.13,5.13,0,0,0,1.873-.345,2.058,2.058,0,0,1,.181.5,3.245,3.245,0,0,1,.083.586,4.665,4.665,0,0,1-1.006.29,7.029,7.029,0,0,1-1.214.1,4.61,4.61,0,0,1-1.665-.269,2.916,2.916,0,0,1-1.8-1.917,4.918,4.918,0,0,1-.208-1.469,5.122,5.122,0,0,1,.2-1.469,3.288,3.288,0,0,1,.617-1.186,2.98,2.98,0,0,1,1.048-.8,3.478,3.478,0,0,1,1.492-.3,3.134,3.134,0,0,1,1.29.248,2.621,2.621,0,0,1,.93.683,2.956,2.956,0,0,1,.569,1.034,4.2,4.2,0,0,1,.194,1.3q0,.193-.013.407t-.028.365Zm3.525-1.021a2.583,2.583,0,0,0-.1-.738,1.864,1.864,0,0,0-.305-.614,1.483,1.483,0,0,0-.514-.421,1.619,1.619,0,0,0-.743-.159,1.638,1.638,0,0,0-1.3.51,2.487,2.487,0,0,0-.549,1.421Z" transform="translate(-38.353 -7.33)" fill="#231f20"/>
  <path id="Path_393" data-name="Path 393" d="M87.552,38.486a.6.6,0,0,0-.762-.268c-.92.228-2.566,1.115-2.313,2.772a2.593,2.593,0,0,0,3.088,2.042c.463-.067.634-.161.777-.531a4.367,4.367,0,0,0-.789-4.014Z" transform="translate(-28.564 -12.913)" fill="#fff" stroke="#231f20" stroke-linecap="round" stroke-linejoin="round" stroke-width="1.48"/>
  <path id="Path_394" data-name="Path 394" d="M87.743,48.139A3.824,3.824,0,0,1,82.5,45.263c.193-.057.279-.062.473-.118.578,1.978,3.1,2.213,4.168,1.654-.032.244-.052.432-.059.579a1.6,1.6,0,0,0,.05.411c.091.156.3.234.611.352Z" transform="translate(-27.905 -15.27)" fill="#231f20"/>
  <path id="Path_395" data-name="Path 395" d="M87.69,42.294a.821.821,0,1,0-.963-.673A.828.828,0,0,0,87.69,42.294Z" transform="translate(-29.331 -13.754)" fill="#231f20"/>
  <path id="Path_396" data-name="Path 396" d="M82.146,45.38l-.329.044c.391-1.176,1.231-.824,1.551-.48l-.2.192C83.149,45.129,82.77,44.925,82.146,45.38Z" transform="translate(-27.673 -15.089)" fill="#231f20"/>
</svg>
