<svg id="De-Sprinkhaan-Logo-Color" xmlns="http://www.w3.org/2000/svg" width="162.38" height="54.662" viewBox="0 0 162.38 54.662">
  <path id="Path_373" data-name="Path 373" d="M56.047,54.294c1,.519,1.348,1.029,1.344,1.334,0,.236-.237.492-.628.685-1.33.656-3.976.467-6.644-1.5A76.862,76.862,0,0,1,38.172,42.9a.168.168,0,0,1,.234-.237A113.294,113.294,0,0,0,56.047,54.294Z" transform="translate(-7.479 -8.359)" fill="#f7941d"/>
  <path id="Path_374" data-name="Path 374" d="M42.116,53.4A55.425,55.425,0,0,0,47.1,57.821a83.554,83.554,0,0,1-10.3-.153,12.229,12.229,0,0,1-6.563-2.556.334.334,0,0,1,.2-.6,78.507,78.507,0,0,0,9.409-.764C40.567,53.649,41.326,53.532,42.116,53.4Z" transform="translate(-5.905 -10.473)" fill="#8dc63f"/>
  <path id="Path_375" data-name="Path 375" d="M70.927,53.313a.3.3,0,0,1,.022.586c-1.457.423-3.262.894-5.36,1.34-1.1.234-2.338.471-3.687.693a4.554,4.554,0,0,0-1.954-1.755c-1.968-1.026-3.872-2.118-5.689-3.233,1.843-.5,3.761-1.089,5.718-1.793A41.756,41.756,0,0,0,70.927,53.313Z" transform="translate(-10.642 -9.641)" fill="#8dc63f"/>
  <path id="Path_376" data-name="Path 376" d="M65.174,44.535a.3.3,0,0,1-.242.551,42.833,42.833,0,0,1-11.069-4.965A64.714,64.714,0,0,1,41.317,29.715a87.447,87.447,0,0,1-9.373-11.774.254.254,0,0,1,.3-.375,87.888,87.888,0,0,1,13.882,6.648,29.68,29.68,0,0,0,5.472,9.14,50.33,50.33,0,0,0,8.355,7.676C61.816,42.41,63.606,43.581,65.174,44.535Z" transform="translate(-6.257 -3.442)" fill="#f7941d"/>
  <path id="Path_377" data-name="Path 377" d="M87.74,47.677l-.1.04a4.583,4.583,0,0,1-5.976-2.529c-.523-1.3-1.011-2.616-1.453-3.9a1.749,1.749,0,0,1,.719-2.049c1.36-.866,2.81-1.879,3.89-2.653a.634.634,0,0,1,.984.357A73.237,73.237,0,0,1,87.74,47.677Z" transform="translate(-15.714 -7.152)" fill="#8dc63f"/>
  <path id="Path_378" data-name="Path 378" d="M72.38,41.4a.3.3,0,0,1-.421.4,67.739,67.739,0,0,1-7.528-4.833,48.678,48.678,0,0,1-8.078-7.426,27.18,27.18,0,0,1-5.533-9.728c-1.592-5.354-.855-10.83,2.19-16.3a.257.257,0,0,1,.452.008Z" transform="translate(-9.807 -0.662)" fill="#f7941d"/>
  <path id="Path_379" data-name="Path 379" d="M87.973,41.643a1.557,1.557,0,0,1-.972,1.6l-.109.044a6.153,6.153,0,0,1-4.737-.034,6.1,6.1,0,0,1-3.314-3.37c-.533-1.329-1.031-2.667-1.482-3.976a3.318,3.318,0,0,1,1.365-3.889c1.6-1.017,3.325-2.244,4.4-3.026a1.065,1.065,0,0,0,.389-1.2c-1.132-3.462-4.664-13.329-10.1-20.1a.785.785,0,0,1,.125-1.109.8.8,0,0,1,1.116.124c5.787,7.2,9.372,17.458,10.445,20.813l.336,1.091a81.122,81.122,0,0,1,2.287,11.468,8.1,8.1,0,0,1-1.444.413c.173.23.661.37,1.569.222,0,0,.1.687.121.926Zm-1.681.18.1-.04a73.241,73.241,0,0,0-1.935-10.736.634.634,0,0,0-.984-.356c-1.08.773-2.53,1.787-3.89,2.653a1.749,1.749,0,0,0-.719,2.049c.442,1.285.931,2.6,1.453,3.9a4.583,4.583,0,0,0,5.976,2.529Z" transform="translate(-14.366 -1.258)"/>
  <path id="Path_380" data-name="Path 380" d="M25.219,27.5l.037.007.037.008.033.009.042.013.028.01.047.021.017.007a.014.014,0,0,1,.007,0l.048.028.02.011.039.028a.881.881,0,0,1,.084.071,118.95,118.95,0,0,0,16.12,12.437c1.835-.457,3.761-1.009,5.736-1.675q-.385-.23-.768-.467A66.319,66.319,0,0,1,33.881,27.33,85.236,85.236,0,0,1,22.719,12.752a.786.786,0,0,1,.079-.893.8.8,0,0,1,.868-.244,90.293,90.293,0,0,1,15.543,6.943C37.735,12.548,38.953,6.433,42.84.365a.8.8,0,0,1,1.381.074L65.49,43.026a.608.608,0,0,1,.025.057,1.7,1.7,0,0,0,.315.529c.17.186.383.413.635.664,1.178,1.172,3.174,2.848,5.195,3.147a29.014,29.014,0,0,0,3.371.258,10.48,10.48,0,0,0,1.608-.094.794.794,0,0,1,.911.7.808.808,0,0,1-.7.86,11.939,11.939,0,0,1-1.717.107,29.327,29.327,0,0,1-3.706-.275c-3.085-.455-5.895-3.316-6.9-4.442a59.311,59.311,0,0,1-5.739,1.771c-.257.637-1.119,2.789-2.065,5.265a.845.845,0,0,1-.05.107c-.113.2-1.21,1.97-5.054,2.952a.809.809,0,0,1-.2.025.789.789,0,0,1-.2-1.554c2.881-.736,3.878-1.942,4.046-2.171.631-1.654,1.224-3.157,1.621-4.156q-.757.176-1.575.352c-1.169.248-2.481.5-3.917.734a2.627,2.627,0,0,1-1.416,1.5,5.454,5.454,0,0,1-2.4.5,7.941,7.941,0,0,1-1.256-.1,9.968,9.968,0,0,1-2.9-.968c-1.948.138-4.009.22-6.167.22s-4.252-.076-6.492-.249a13.831,13.831,0,0,1-9.587-5l-.023-.029a.811.811,0,0,1-.17-.689.794.794,0,0,1,.818-.612,68.945,68.945,0,0,0,11.949-.729c.352-.05.715-.1,1.084-.161a91.817,91.817,0,0,1-9.679-11.711c-.834,1.515-2.439,4.31-4.6,7.5C17.583,41.745,12.889,47.846,7.5,51.839l-.042.029a7.018,7.018,0,0,1-3.62.846,11.452,11.452,0,0,1-3.267-.5A.79.79,0,1,1,1.022,50.7a8.792,8.792,0,0,0,4.229.3,4.553,4.553,0,0,0,1.324-.45c9.988-7.412,17.741-22.483,17.818-22.634L24.4,27.9l.023-.041.018-.027.024-.034.023-.029a.3.3,0,0,1,.023-.026c.009-.011.019-.021.029-.032l.022-.02.035-.031.006,0,.017-.012c.012-.009.024-.019.037-.027l.029-.019.034-.02c.013-.007.026-.013.04-.02l.025-.012c.018-.007.037-.015.054-.02l.014-.006A.872.872,0,0,1,25,27.491l.031,0,.041,0h.073a.282.282,0,0,1,.039,0,.22.22,0,0,1,.035,0Zm36.932,13.64a.3.3,0,0,0,.421-.4L43.654,2.854a.257.257,0,0,0-.452-.008c-3.045,5.473-3.782,10.949-2.19,16.3a27.182,27.182,0,0,0,5.534,9.728A48.678,48.678,0,0,0,54.623,36.3,67.733,67.733,0,0,0,62.151,41.136Zm-1.845,3.123a.3.3,0,0,0-.022-.586,41.759,41.759,0,0,1-10.951-4.161c-1.957.7-3.875,1.295-5.718,1.793,1.817,1.115,3.721,2.207,5.689,3.233a4.554,4.554,0,0,1,1.954,1.755c1.348-.222,2.583-.459,3.687-.693C57.045,45.153,58.849,44.682,60.306,44.258Zm-1.63-2.615a.3.3,0,0,0,.242-.551c-1.568-.953-3.358-2.125-5.217-3.505a50.33,50.33,0,0,1-8.355-7.676,29.68,29.68,0,0,1-5.472-9.14,87.9,87.9,0,0,0-13.882-6.648.254.254,0,0,0-.3.375A87.441,87.441,0,0,0,35.06,26.273,64.717,64.717,0,0,0,47.607,36.679,42.837,42.837,0,0,0,58.676,41.644Zm-8.764,5.625c0-.3-.347-.814-1.344-1.334A113.3,113.3,0,0,1,30.927,34.3a.168.168,0,0,0-.234.237A76.857,76.857,0,0,0,42.639,46.455c2.668,1.966,5.314,2.155,6.644,1.5C49.675,47.761,49.91,47.5,49.912,47.268Zm-8.717.079a55.436,55.436,0,0,1-4.984-4.423c-.79.134-1.549.251-2.268.352a78.523,78.523,0,0,1-9.409.764.334.334,0,0,0-.2.6A12.231,12.231,0,0,0,30.9,47.195,83.552,83.552,0,0,0,41.194,47.347Z"/>
  <path id="Path_381" data-name="Path 381" d="M99.49,46.98a11.837,11.837,0,0,0,1.163.352,6.246,6.246,0,0,0,1.483.151,3.2,3.2,0,0,0,2.065-.561,1.86,1.86,0,0,0,.682-1.516,2.037,2.037,0,0,0-.143-.8,1.547,1.547,0,0,0-.43-.578,3.182,3.182,0,0,0-.716-.444q-.429-.2-1-.436l-.961-.385a6.641,6.641,0,0,1-.893-.444,2.742,2.742,0,0,1-.7-.595,2.686,2.686,0,0,1-.464-.813,3.2,3.2,0,0,1-.169-1.1,2.928,2.928,0,0,1,1.045-2.387,4.484,4.484,0,0,1,2.933-.863,8.423,8.423,0,0,1,1.534.134,8.142,8.142,0,0,1,1.281.335,5.231,5.231,0,0,1-.371,1.391,8.4,8.4,0,0,0-1.054-.3,6.236,6.236,0,0,0-1.357-.134,2.7,2.7,0,0,0-1.635.427,1.5,1.5,0,0,0-.573,1.282,1.344,1.344,0,0,0,.143.628,1.674,1.674,0,0,0,.379.486,2.761,2.761,0,0,0,.556.377,6.154,6.154,0,0,0,.674.3l.944.369a10.007,10.007,0,0,1,1.2.561A3.7,3.7,0,0,1,106,43.1a2.654,2.654,0,0,1,.565.93,3.708,3.708,0,0,1,.194,1.257,3.354,3.354,0,0,1-1.2,2.723,5.1,5.1,0,0,1-3.355,1q-.522,0-.944-.034a7.626,7.626,0,0,1-.784-.1,6.673,6.673,0,0,1-.7-.168q-.337-.1-.691-.218a3.731,3.731,0,0,1,.152-.754Q99.355,47.348,99.49,46.98Z" transform="translate(-19.435 -7.171)" fill="#231f20"/>
  <path id="Path_382" data-name="Path 382" d="M111.079,41.053a3.429,3.429,0,0,1,.346-.05c.118-.011.239-.017.363-.017s.23.006.354.017a3.335,3.335,0,0,1,.354.05,1.013,1.013,0,0,1,.043.209q.025.176.051.377t.051.385a2.314,2.314,0,0,1,.025.235,3.466,3.466,0,0,1,.4-.519,2.7,2.7,0,0,1,.565-.452,2.97,2.97,0,0,1,.742-.318,3.352,3.352,0,0,1,.918-.117,3.865,3.865,0,0,1,1.408.251,2.812,2.812,0,0,1,1.113.779,3.732,3.732,0,0,1,.725,1.34,6.283,6.283,0,0,1,.261,1.918,4.775,4.775,0,0,1-1.2,3.46,4.525,4.525,0,0,1-3.414,1.248,5.89,5.89,0,0,1-.758-.05,4.48,4.48,0,0,1-.674-.134V53.6c-.135.022-.278.039-.43.05s-.289.017-.412.017-.261-.006-.413-.017a3.983,3.983,0,0,1-.413-.05Zm1.669,7.187a3.339,3.339,0,0,0,.658.168,6.172,6.172,0,0,0,.876.05,3.1,3.1,0,0,0,1.113-.193,2.207,2.207,0,0,0,.868-.595,2.9,2.9,0,0,0,.573-1.014,4.454,4.454,0,0,0,.211-1.449,3.957,3.957,0,0,0-.5-2.128,1.777,1.777,0,0,0-1.627-.787,2.21,2.21,0,0,0-.809.151,1.993,1.993,0,0,0-.691.452,2.22,2.22,0,0,0-.489.762,2.931,2.931,0,0,0-.186,1.1Z" transform="translate(-21.787 -8.013)" fill="#231f20"/>
  <path id="Path_383" data-name="Path 383" d="M123.347,41.086c.123-.022.241-.039.354-.05s.231-.017.354-.017.248.006.371.017a2.711,2.711,0,0,1,.337.05q.051.251.1.662a5.829,5.829,0,0,1,.051.7,3.462,3.462,0,0,1,.936-.988,2.488,2.488,0,0,1,1.491-.419c.09,0,.182,0,.278.008a2.381,2.381,0,0,1,.244.025,2.692,2.692,0,0,1,.051.318,3.514,3.514,0,0,1,.017.352,3.63,3.63,0,0,1-.025.419q-.025.218-.059.419a1.144,1.144,0,0,0-.278-.034h-.227a2.971,2.971,0,0,0-.868.126,1.814,1.814,0,0,0-.741.444,2.2,2.2,0,0,0-.523.871,4.375,4.375,0,0,0-.194,1.424v4.272a3.981,3.981,0,0,1-.413.05c-.152.011-.289.017-.413.017s-.261-.006-.413-.017-.3-.028-.429-.05Z" transform="translate(-24.193 -8.046)" fill="#231f20"/>
  <path id="Path_384" data-name="Path 384" d="M131.366,41.518h-1.1a2.1,2.1,0,0,1-.051-.31q-.017-.176-.017-.343t.017-.343a2.1,2.1,0,0,1,.051-.31H133v8.595a3.98,3.98,0,0,1-.413.05c-.151.011-.289.017-.413.017s-.244-.006-.4-.017a3.981,3.981,0,0,1-.413-.05Zm-.371-3.2a3.365,3.365,0,0,1-.043-.436c-.006-.156-.008-.3-.008-.419s0-.262.008-.419a2.922,2.922,0,0,1,.043-.419q.218-.034.472-.05c.168-.011.314-.017.438-.017s.269.006.438.017.321.028.455.05a2.917,2.917,0,0,1,.043.419c.006.156.008.3.008.419s0,.262-.008.419a3.36,3.36,0,0,1-.043.436c-.134.022-.284.039-.446.05s-.306.017-.43.017-.287-.006-.455-.017S131.141,38.341,131,38.318Z" transform="translate(-25.538 -7.171)" fill="#231f20"/>
  <path id="Path_385" data-name="Path 385" d="M136.934,41.053c.123-.022.244-.039.362-.05s.239-.017.363-.017A3.33,3.33,0,0,1,138,41c.107.011.222.028.346.05q.051.251.1.679a6.243,6.243,0,0,1,.051.712,3.481,3.481,0,0,1,.429-.57,3.312,3.312,0,0,1,.6-.511,3.094,3.094,0,0,1,1.736-.511,2.7,2.7,0,0,1,2.191.846,3.822,3.822,0,0,1,.707,2.5v5.445a3.959,3.959,0,0,1-.421.05c-.158.011-.3.017-.421.017s-.261-.006-.413-.017a4,4,0,0,1-.413-.05V44.656a3.237,3.237,0,0,0-.371-1.751,1.311,1.311,0,0,0-1.18-.561,2.393,2.393,0,0,0-.893.168,1.988,1.988,0,0,0-.742.519,2.6,2.6,0,0,0-.514.913,4.145,4.145,0,0,0-.194,1.349v4.356a4,4,0,0,1-.413.05c-.152.011-.289.017-.413.017s-.264-.006-.421-.017a3.958,3.958,0,0,1-.421-.05Z" transform="translate(-26.858 -8.013)" fill="#231f20"/>
  <path id="Path_386" data-name="Path 386" d="M148.843,36.5a3.98,3.98,0,0,1,.413-.05q.227-.017.412-.017c.124,0,.264.006.421.017a3.983,3.983,0,0,1,.422.05V48.782a4,4,0,0,1-.422.05c-.157.011-.3.017-.421.017s-.261-.006-.412-.017a4,4,0,0,1-.413-.05Zm2.124,7.824,2.748-4.138c.146-.022.292-.039.438-.05s.3-.017.455-.017.329.006.481.017.306.028.463.05L152.8,44.208l3.22,4.574q-.236.033-.456.05t-.455.017q-.235,0-.472-.017c-.158-.011-.314-.028-.472-.05Z" transform="translate(-29.194 -7.146)" fill="#231f20"/>
  <path id="Path_387" data-name="Path 387" d="M159.559,36.5a3.964,3.964,0,0,1,.412-.05c.152-.011.289-.017.413-.017s.264.006.421.017a3.982,3.982,0,0,1,.422.05v4.993a4.879,4.879,0,0,1,.379-.5,2.842,2.842,0,0,1,.556-.494,2.986,2.986,0,0,1,1.711-.511,2.722,2.722,0,0,1,2.2.846,3.791,3.791,0,0,1,.716,2.5v5.445a3.984,3.984,0,0,1-.412.05c-.152.011-.289.017-.413.017s-.261-.006-.413-.017a4,4,0,0,1-.413-.05V43.789a3.076,3.076,0,0,0-.4-1.751,1.378,1.378,0,0,0-1.206-.561,2.459,2.459,0,0,0-.876.159,1.944,1.944,0,0,0-.742.5,2.433,2.433,0,0,0-.506.9,4.24,4.24,0,0,0-.185,1.34v4.406a4,4,0,0,1-.422.05c-.157.011-.3.017-.421.017s-.247-.006-.4-.017a3.961,3.961,0,0,1-.421-.05Z" transform="translate(-31.296 -7.146)" fill="#231f20"/>
  <path id="Path_388" data-name="Path 388" d="M176.01,43.985a1.63,1.63,0,0,0-.506-1.374,2.386,2.386,0,0,0-1.466-.385,6.261,6.261,0,0,0-1.1.092,8.5,8.5,0,0,0-1,.243,2.6,2.6,0,0,1-.32-1.324,7.792,7.792,0,0,1,1.264-.285,9.245,9.245,0,0,1,1.331-.1,3.8,3.8,0,0,1,2.563.762,3.069,3.069,0,0,1,.876,2.438V49.43q-.59.134-1.432.276a10.3,10.3,0,0,1-1.719.142A6.774,6.774,0,0,1,173,49.7a3.057,3.057,0,0,1-1.129-.486,2.261,2.261,0,0,1-.716-.855A2.846,2.846,0,0,1,170.9,47.1a2.59,2.59,0,0,1,.3-1.265,2.649,2.649,0,0,1,.8-.9,3.585,3.585,0,0,1,1.163-.536,5.328,5.328,0,0,1,1.383-.176q.539,0,.885.025t.581.059Zm0,1.625c-.169-.022-.382-.045-.641-.067s-.477-.034-.658-.034a2.755,2.755,0,0,0-1.592.385,1.336,1.336,0,0,0-.548,1.173,1.432,1.432,0,0,0,.186.787,1.275,1.275,0,0,0,.464.436,1.606,1.606,0,0,0,.615.184c.225.022.438.034.641.034a7.956,7.956,0,0,0,.8-.042,4.858,4.858,0,0,0,.733-.126Z" transform="translate(-33.521 -8.013)" fill="#231f20"/>
  <path id="Path_389" data-name="Path 389" d="M186.725,43.985a1.63,1.63,0,0,0-.506-1.374,2.389,2.389,0,0,0-1.467-.385,6.258,6.258,0,0,0-1.1.092,8.5,8.5,0,0,0-1,.243,2.6,2.6,0,0,1-.32-1.324,7.773,7.773,0,0,1,1.264-.285,9.245,9.245,0,0,1,1.331-.1,3.8,3.8,0,0,1,2.562.762,3.069,3.069,0,0,1,.877,2.438V49.43q-.59.134-1.433.276a10.294,10.294,0,0,1-1.719.142,6.774,6.774,0,0,1-1.492-.151,3.056,3.056,0,0,1-1.129-.486,2.246,2.246,0,0,1-.716-.855,2.845,2.845,0,0,1-.253-1.257,2.59,2.59,0,0,1,.295-1.265,2.649,2.649,0,0,1,.8-.9,3.585,3.585,0,0,1,1.163-.536,5.322,5.322,0,0,1,1.382-.176q.54,0,.885.025t.582.059Zm0,1.625q-.253-.034-.641-.067c-.259-.022-.477-.034-.658-.034a2.754,2.754,0,0,0-1.592.385,1.336,1.336,0,0,0-.548,1.173,1.432,1.432,0,0,0,.186.787,1.28,1.28,0,0,0,.463.436,1.614,1.614,0,0,0,.616.184q.336.034.641.034a7.957,7.957,0,0,0,.8-.042,4.858,4.858,0,0,0,.733-.126Z" transform="translate(-35.622 -8.013)" fill="#231f20"/>
  <path id="Path_390" data-name="Path 390" d="M193,41.053c.124-.022.244-.039.363-.05s.239-.017.363-.017a3.314,3.314,0,0,1,.345.017c.107.011.223.028.346.05q.051.251.1.679a6.247,6.247,0,0,1,.051.712,3.441,3.441,0,0,1,.43-.57,3.306,3.306,0,0,1,.6-.511,3.1,3.1,0,0,1,1.736-.511,2.7,2.7,0,0,1,2.191.846,3.823,3.823,0,0,1,.708,2.5v5.445a4,4,0,0,1-.422.05c-.157.011-.3.017-.421.017s-.261-.006-.413-.017a3.983,3.983,0,0,1-.412-.05V44.656A3.236,3.236,0,0,0,198.2,42.9a1.31,1.31,0,0,0-1.179-.561,2.4,2.4,0,0,0-.894.168,1.985,1.985,0,0,0-.741.519,2.6,2.6,0,0,0-.514.913,4.146,4.146,0,0,0-.194,1.349v4.356a4,4,0,0,1-.413.05c-.152.011-.289.017-.413.017s-.264-.006-.421-.017a3.985,3.985,0,0,1-.421-.05Z" transform="translate(-37.856 -8.013)" fill="#231f20"/>
  <path id="Path_391" data-name="Path 391" d="M99.7,17.583q.574-.067,1.382-.126t1.584-.059a6.394,6.394,0,0,1,4.762,1.608A6.336,6.336,0,0,1,109,23.631a6.293,6.293,0,0,1-1.609,4.674,6.736,6.736,0,0,1-4.8,1.525q-.792,0-1.568-.059T99.7,29.629Zm1.719,10.639q.236.034.582.059t.733.025a6.789,6.789,0,0,0,1.812-.226,3.414,3.414,0,0,0,1.408-.762,3.464,3.464,0,0,0,.91-1.449,6.98,6.98,0,0,0,.321-2.287,6.338,6.338,0,0,0-.321-2.145,3.734,3.734,0,0,0-.9-1.449,3.437,3.437,0,0,0-1.391-.813,6,6,0,0,0-1.786-.251q-.321,0-.7.008a4.466,4.466,0,0,0-.666.059Z" transform="translate(-19.555 -3.413)" fill="#231f20"/>
  <path id="Path_392" data-name="Path 392" d="M115.16,26.58a2.8,2.8,0,0,0,.734,2.061,2.922,2.922,0,0,0,2.064.653,6.232,6.232,0,0,0,2.276-.419,2.5,2.5,0,0,1,.219.611,3.942,3.942,0,0,1,.1.712,5.667,5.667,0,0,1-1.222.352,8.538,8.538,0,0,1-1.475.117,5.6,5.6,0,0,1-2.023-.327,3.542,3.542,0,0,1-2.191-2.329,5.974,5.974,0,0,1-.252-1.784,6.221,6.221,0,0,1,.244-1.784,3.994,3.994,0,0,1,.75-1.441,3.62,3.62,0,0,1,1.273-.972,4.225,4.225,0,0,1,1.812-.36,3.807,3.807,0,0,1,1.568.3,3.183,3.183,0,0,1,1.129.829,3.591,3.591,0,0,1,.691,1.257,5.106,5.106,0,0,1,.236,1.583c0,.156-.006.321-.016.494s-.023.321-.034.444Zm4.281-1.24a3.138,3.138,0,0,0-.126-.9,2.264,2.264,0,0,0-.371-.745,1.8,1.8,0,0,0-.624-.511,1.967,1.967,0,0,0-.9-.193,1.99,1.99,0,0,0-1.576.62,3.021,3.021,0,0,0-.666,1.726Z" transform="translate(-22.241 -4.251)" fill="#231f20"/>
  <path id="Path_393" data-name="Path 393" d="M88.218,38.552a.725.725,0,0,0-.926-.326c-1.117.277-3.117,1.354-2.809,3.368a3.15,3.15,0,0,0,3.751,2.48c.562-.082.77-.2.944-.645.412-1.068.441-2.809-.959-4.876Z" transform="translate(-16.564 -7.488)" fill="#fff" stroke="#231f20" stroke-linecap="round" stroke-linejoin="round" stroke-width="1.48"/>
  <path id="Path_394" data-name="Path 394" d="M88.868,48.782c-2.6,1.3-5.875-.632-6.366-3.494.235-.069.339-.075.574-.143.7,2.4,3.763,2.688,5.062,2.009-.039.3-.064.525-.072.7a1.941,1.941,0,0,0,.061.5c.11.189.361.284.742.427Z" transform="translate(-16.182 -8.855)" fill="#231f20"/>
  <path id="Path_395" data-name="Path 395" d="M87.9,42.644a1,1,0,1,0-1.17-.817A1.006,1.006,0,0,0,87.9,42.644Z" transform="translate(-17.009 -7.976)" fill="#231f20"/>
  <path id="Path_396" data-name="Path 396" d="M82.216,45.545l-.4.053c.475-1.429,1.5-1,1.884-.583l-.24.233C83.436,45.239,82.975,44.992,82.216,45.545Z" transform="translate(-16.048 -8.75)" fill="#231f20"/>
</svg>
