<svg id="De-Sprinkhaan-Logo-Color" xmlns="http://www.w3.org/2000/svg" width="26.735" height="9" viewBox="0 0 26.735 9">
  <path id="Path_373" data-name="Path 373" d="M41.082,44.542c.164.086.222.169.221.22s-.039.081-.1.113a1.152,1.152,0,0,1-1.094-.247,12.655,12.655,0,0,1-1.967-1.962.028.028,0,0,1,.039-.039A18.653,18.653,0,0,0,41.082,44.542Z" transform="translate(-33.085 -36.979)" fill="#f7941d"/>
  <path id="Path_374" data-name="Path 374" d="M32.085,53.4a9.125,9.125,0,0,0,.821.728,13.757,13.757,0,0,1-1.7-.025,2.014,2.014,0,0,1-1.081-.421.055.055,0,0,1,.033-.1,12.927,12.927,0,0,0,1.549-.126C31.83,53.439,31.955,53.42,32.085,53.4Z" transform="translate(-26.123 -46.331)" fill="#8dc63f"/>
  <path id="Path_375" data-name="Path 375" d="M57,49.837a.05.05,0,0,1,0,.1c-.24.07-.537.147-.883.221-.182.039-.385.078-.607.114a.75.75,0,0,0-.322-.289c-.324-.169-.638-.349-.937-.532.3-.082.619-.179.941-.3A6.875,6.875,0,0,0,57,49.837Z" transform="translate(-47.077 -42.647)" fill="#8dc63f"/>
  <path id="Path_376" data-name="Path 376" d="M37.38,21.991a.05.05,0,0,1-.04.091,7.052,7.052,0,0,1-1.822-.817,10.655,10.655,0,0,1-2.066-1.713,14.4,14.4,0,0,1-1.543-1.939.042.042,0,0,1,.05-.062,14.471,14.471,0,0,1,2.286,1.094,4.887,4.887,0,0,0,.9,1.5,8.287,8.287,0,0,0,1.376,1.264C36.827,21.641,37.121,21.834,37.38,21.991Z" transform="translate(-27.679 -15.225)" fill="#f7941d"/>
  <path id="Path_377" data-name="Path 377" d="M81.371,38.312l-.016.007a.755.755,0,0,1-.984-.416c-.086-.215-.167-.431-.239-.642a.288.288,0,0,1,.118-.337c.224-.143.463-.309.64-.437a.1.1,0,0,1,.162.059A12.059,12.059,0,0,1,81.371,38.312Z" transform="translate(-69.513 -31.639)" fill="#8dc63f"/>
  <path id="Path_378" data-name="Path 378" d="M53.686,9.637a.05.05,0,0,1-.069.066,11.153,11.153,0,0,1-1.239-.8,8.015,8.015,0,0,1-1.33-1.223,4.475,4.475,0,0,1-.911-1.6A3.38,3.38,0,0,1,50.5,3.4a.042.042,0,0,1,.074,0Z" transform="translate(-43.384 -2.93)" fill="#f7941d"/>
  <path id="Path_379" data-name="Path 379" d="M75.668,12.214a.256.256,0,0,1-.16.263l-.018.007a1.013,1.013,0,0,1-.78-.006,1,1,0,0,1-.546-.555c-.088-.219-.17-.439-.244-.655a.546.546,0,0,1,.225-.64c.263-.168.548-.369.725-.5a.175.175,0,0,0,.064-.2,11.522,11.522,0,0,0-1.663-3.309.129.129,0,0,1,.021-.183.131.131,0,0,1,.184.02,11.666,11.666,0,0,1,1.72,3.427l.055.18a13.357,13.357,0,0,1,.377,1.888,1.333,1.333,0,0,1-.238.068c.029.038.109.061.258.036,0,0,.016.113.02.152Zm-.277.03.016-.007a12.058,12.058,0,0,0-.319-1.768.1.1,0,0,0-.162-.059c-.178.127-.417.294-.64.437a.288.288,0,0,0-.118.337c.073.212.153.428.239.642a.755.755,0,0,0,.984.416Z" transform="translate(-63.548 -5.565)"/>
  <path id="Path_380" data-name="Path 380" d="M4.152,4.527h.012l.005,0,.007,0,0,0,.008,0h0l.008,0,0,0,.006,0,.014.012A19.585,19.585,0,0,0,6.879,6.61c.3-.075.619-.166.944-.276L7.7,6.258A10.919,10.919,0,0,1,5.578,4.5,14.034,14.034,0,0,1,3.741,2.1a.129.129,0,0,1,.013-.147.132.132,0,0,1,.143-.04A14.867,14.867,0,0,1,6.456,3.055a3.756,3.756,0,0,1,.6-3,.131.131,0,0,1,.227.012l3.5,7.012,0,.009a.28.28,0,0,0,.052.087c.028.031.063.068.1.109a1.745,1.745,0,0,0,.855.518,4.777,4.777,0,0,0,.555.042,1.726,1.726,0,0,0,.265-.015.131.131,0,0,1,.15.116.133.133,0,0,1-.115.142,1.966,1.966,0,0,1-.283.018,4.829,4.829,0,0,1-.61-.045,2.2,2.2,0,0,1-1.135-.731,9.765,9.765,0,0,1-.945.292c-.042.1-.184.459-.34.867a.139.139,0,0,1-.008.018A1.282,1.282,0,0,1,8.5,9a.133.133,0,0,1-.033,0,.13.13,0,0,1-.033-.256A1.165,1.165,0,0,0,9.1,8.387c.1-.272.2-.52.267-.684l-.259.058c-.192.041-.408.082-.645.121a.433.433,0,0,1-.233.247.9.9,0,0,1-.4.083,1.307,1.307,0,0,1-.207-.017,1.641,1.641,0,0,1-.477-.159c-.321.023-.66.036-1.015.036s-.7-.013-1.069-.041a2.277,2.277,0,0,1-1.578-.824l0,0a.133.133,0,0,1-.028-.113.131.131,0,0,1,.135-.1,11.352,11.352,0,0,0,1.967-.12l.179-.027A15.117,15.117,0,0,1,4.143,4.912c-.137.249-.4.71-.757,1.234A10.159,10.159,0,0,1,1.234,8.535l-.007,0a1.155,1.155,0,0,1-.6.139A1.885,1.885,0,0,1,.093,8.6a.13.13,0,1,1,.075-.249,1.448,1.448,0,0,0,.7.05.75.75,0,0,0,.218-.074A12.623,12.623,0,0,0,4.016,4.6l0,0,0-.007,0,0,0-.006,0,0,0,0,0-.005,0,0,.006-.005h0l0,0,.006,0,0,0,.006,0,.007,0,0,0,.009,0h0l.024-.005h.036Zm6.081,2.246a.05.05,0,0,0,.069-.066L7.188.47a.042.042,0,0,0-.074,0,3.38,3.38,0,0,0-.361,2.684,4.475,4.475,0,0,0,.911,1.6,8.015,8.015,0,0,0,1.33,1.223A11.152,11.152,0,0,0,10.233,6.773Zm-.3.514a.05.05,0,0,0,0-.1,6.875,6.875,0,0,1-1.8-.685c-.322.116-.638.213-.941.3.3.184.613.363.937.532a.75.75,0,0,1,.322.289c.222-.037.425-.076.607-.114C9.392,7.434,9.689,7.357,9.929,7.287Zm-.268-.43a.05.05,0,0,0,.04-.091c-.258-.157-.553-.35-.859-.577A8.287,8.287,0,0,1,7.466,4.925a4.887,4.887,0,0,1-.9-1.5A14.472,14.472,0,0,0,4.279,2.325a.042.042,0,0,0-.05.062A14.4,14.4,0,0,0,5.773,4.326,10.655,10.655,0,0,0,7.838,6.039,7.053,7.053,0,0,0,9.661,6.857Zm-1.443.926c0-.05-.057-.134-.221-.22a18.654,18.654,0,0,1-2.9-1.916.028.028,0,0,0-.039.039A12.654,12.654,0,0,0,7.02,7.649,1.152,1.152,0,0,0,8.114,7.9C8.179,7.864,8.217,7.822,8.218,7.783ZM6.783,7.8a9.127,9.127,0,0,1-.821-.728c-.13.022-.255.041-.373.058a12.929,12.929,0,0,1-1.549.126.055.055,0,0,0-.033.1,2.014,2.014,0,0,0,1.081.421A13.757,13.757,0,0,0,6.783,7.8Z" transform="translate(0)"/>
  <path id="Path_381" data-name="Path 381" d="M99.152,38.275a1.95,1.95,0,0,0,.191.058,1.028,1.028,0,0,0,.244.025.527.527,0,0,0,.34-.092.306.306,0,0,0,.112-.25.335.335,0,0,0-.024-.132.255.255,0,0,0-.071-.1.524.524,0,0,0-.118-.073q-.071-.033-.165-.072L99.5,37.58a1.094,1.094,0,0,1-.147-.073.451.451,0,0,1-.115-.1.442.442,0,0,1-.076-.134.527.527,0,0,1-.028-.181.482.482,0,0,1,.172-.393.738.738,0,0,1,.483-.142,1.387,1.387,0,0,1,.253.022,1.341,1.341,0,0,1,.211.055.861.861,0,0,1-.061.229,1.383,1.383,0,0,0-.174-.05,1.027,1.027,0,0,0-.223-.022.444.444,0,0,0-.269.07.246.246,0,0,0-.094.211.221.221,0,0,0,.024.1.276.276,0,0,0,.062.08.454.454,0,0,0,.092.062,1.013,1.013,0,0,0,.111.05l.155.061a1.647,1.647,0,0,1,.2.092.61.61,0,0,1,.147.113.437.437,0,0,1,.093.153.611.611,0,0,1,.032.207.552.552,0,0,1-.2.448.839.839,0,0,1-.552.164q-.086,0-.155-.006a1.255,1.255,0,0,1-.129-.017,1.1,1.1,0,0,1-.115-.028l-.114-.036a.614.614,0,0,1,.025-.124Q99.129,38.335,99.152,38.275Z" transform="translate(-85.971 -31.72)" fill="#231f20"/>
  <path id="Path_382" data-name="Path 382" d="M111.079,40.886l.057-.008.06,0,.058,0a.549.549,0,0,1,.058.008.167.167,0,0,1,.007.034q0,.029.008.062l.008.063a.38.38,0,0,1,0,.039.571.571,0,0,1,.067-.086.445.445,0,0,1,.093-.074.489.489,0,0,1,.122-.052.552.552,0,0,1,.151-.019.636.636,0,0,1,.232.041.463.463,0,0,1,.183.128.614.614,0,0,1,.119.221,1.034,1.034,0,0,1,.043.316.786.786,0,0,1-.2.57.745.745,0,0,1-.562.206.969.969,0,0,1-.125-.008.737.737,0,0,1-.111-.022v.648c-.022,0-.046.006-.071.008l-.068,0-.068,0a.655.655,0,0,1-.068-.008Zm.275,1.183a.55.55,0,0,0,.108.028,1.016,1.016,0,0,0,.144.008.51.51,0,0,0,.183-.032.363.363,0,0,0,.143-.1.478.478,0,0,0,.094-.167.733.733,0,0,0,.035-.239.652.652,0,0,0-.082-.35.293.293,0,0,0-.268-.13.364.364,0,0,0-.133.025.328.328,0,0,0-.114.074.365.365,0,0,0-.08.126.483.483,0,0,0-.031.181Z" transform="translate(-96.377 -35.445)" fill="#231f20"/>
  <path id="Path_383" data-name="Path 383" d="M123.347,41.03l.058-.008.058,0,.061,0a.447.447,0,0,1,.055.008q.008.041.017.109a.96.96,0,0,1,.008.114.57.57,0,0,1,.154-.163.41.41,0,0,1,.246-.069h.046l.04,0a.444.444,0,0,1,.008.052q0,.028,0,.058a.6.6,0,0,1,0,.069c0,.024-.006.047-.01.069a.188.188,0,0,0-.046-.006H124a.489.489,0,0,0-.143.021.3.3,0,0,0-.122.073.363.363,0,0,0-.086.143.721.721,0,0,0-.032.234v.7a.656.656,0,0,1-.068.008l-.068,0-.068,0c-.025,0-.049,0-.071-.008Z" transform="translate(-107.022 -35.59)" fill="#231f20"/>
  <path id="Path_384" data-name="Path 384" d="M130.395,37.376h-.18a.345.345,0,0,1-.008-.051q0-.029,0-.057t0-.057a.345.345,0,0,1,.008-.051h.45v1.415a.654.654,0,0,1-.068.008l-.068,0-.065,0a.655.655,0,0,1-.068-.008Zm-.061-.527a.552.552,0,0,1-.007-.072c0-.026,0-.049,0-.069s0-.043,0-.069a.479.479,0,0,1,.007-.069q.036-.006.078-.008l.072,0,.072,0q.042,0,.075.008a.479.479,0,0,1,.007.069c0,.026,0,.049,0,.069s0,.043,0,.069a.552.552,0,0,1-.007.072c-.022,0-.047.006-.073.008l-.071,0-.075,0Q130.369,36.854,130.333,36.849Z" transform="translate(-112.97 -31.72)" fill="#231f20"/>
  <path id="Path_385" data-name="Path 385" d="M136.934,40.886l.06-.008.06,0,.057,0,.057.008q.008.041.017.112a1.026,1.026,0,0,1,.008.117.572.572,0,0,1,.071-.094.545.545,0,0,1,.1-.084.509.509,0,0,1,.286-.084.444.444,0,0,1,.361.139.629.629,0,0,1,.116.412v.9a.652.652,0,0,1-.069.008l-.069,0-.068,0a.659.659,0,0,1-.068-.008v-.822a.533.533,0,0,0-.061-.288.216.216,0,0,0-.194-.092.394.394,0,0,0-.147.028.327.327,0,0,0-.122.085.427.427,0,0,0-.085.15.683.683,0,0,0-.032.222V42.3a.659.659,0,0,1-.068.008l-.068,0-.069,0a.652.652,0,0,1-.069-.008Z" transform="translate(-118.81 -35.445)" fill="#231f20"/>
  <path id="Path_386" data-name="Path 386" d="M148.843,36.445a.656.656,0,0,1,.068-.008l.068,0,.069,0a.656.656,0,0,1,.069.008v2.022a.66.66,0,0,1-.069.008l-.069,0-.068,0a.66.66,0,0,1-.068-.008Zm.35,1.288.452-.681.072-.008.075,0,.079,0,.076.008-.452.662.53.753-.075.008-.075,0-.078,0-.078-.008Z" transform="translate(-129.143 -31.612)" fill="#231f20"/>
  <path id="Path_387" data-name="Path 387" d="M159.559,36.445a.653.653,0,0,1,.068-.008l.068,0,.069,0a.656.656,0,0,1,.069.008v.822a.8.8,0,0,1,.062-.083.468.468,0,0,1,.092-.081.492.492,0,0,1,.282-.084.448.448,0,0,1,.362.139.624.624,0,0,1,.118.412v.9a.657.657,0,0,1-.068.008l-.068,0-.068,0a.66.66,0,0,1-.068-.008v-.822a.506.506,0,0,0-.065-.288.227.227,0,0,0-.2-.092.4.4,0,0,0-.144.026.32.32,0,0,0-.122.083.4.4,0,0,0-.083.148.7.7,0,0,0-.03.221v.725a.66.66,0,0,1-.069.008l-.069,0-.067,0a.653.653,0,0,1-.069-.008Z" transform="translate(-138.441 -31.612)" fill="#231f20"/>
  <path id="Path_388" data-name="Path 388" d="M171.743,41.368a.268.268,0,0,0-.083-.226.393.393,0,0,0-.241-.063,1.031,1.031,0,0,0-.182.015,1.4,1.4,0,0,0-.165.04.428.428,0,0,1-.053-.218,1.282,1.282,0,0,1,.208-.047,1.522,1.522,0,0,1,.219-.017.626.626,0,0,1,.422.126.505.505,0,0,1,.144.4v.885q-.1.022-.236.046a1.7,1.7,0,0,1-.283.023,1.116,1.116,0,0,1-.246-.025.5.5,0,0,1-.186-.08.372.372,0,0,1-.118-.141.469.469,0,0,1-.042-.207.427.427,0,0,1,.049-.208.436.436,0,0,1,.132-.149.59.59,0,0,1,.192-.088.877.877,0,0,1,.228-.029q.089,0,.146,0t.1.01Zm0,.268-.105-.011q-.064-.006-.108-.006a.454.454,0,0,0-.262.063.22.22,0,0,0-.09.193.236.236,0,0,0,.031.13.21.21,0,0,0,.076.072.264.264,0,0,0,.1.03c.037,0,.072.006.105.006a1.31,1.31,0,0,0,.132-.007.8.8,0,0,0,.121-.021Z" transform="translate(-148.283 -35.445)" fill="#231f20"/>
  <path id="Path_389" data-name="Path 389" d="M182.458,41.368a.268.268,0,0,0-.083-.226.393.393,0,0,0-.242-.063,1.03,1.03,0,0,0-.182.015,1.4,1.4,0,0,0-.165.04.428.428,0,0,1-.053-.218,1.279,1.279,0,0,1,.208-.047,1.522,1.522,0,0,1,.219-.017.625.625,0,0,1,.422.126.505.505,0,0,1,.144.4v.885q-.1.022-.236.046a1.7,1.7,0,0,1-.283.023,1.115,1.115,0,0,1-.246-.025.5.5,0,0,1-.186-.08.37.37,0,0,1-.118-.141.468.468,0,0,1-.042-.207.427.427,0,0,1,.049-.208.436.436,0,0,1,.132-.149.59.59,0,0,1,.192-.088.876.876,0,0,1,.228-.029q.089,0,.146,0t.1.01Zm0,.268-.105-.011c-.043,0-.079-.006-.108-.006a.453.453,0,0,0-.262.063.22.22,0,0,0-.09.193.236.236,0,0,0,.031.13.211.211,0,0,0,.076.072.266.266,0,0,0,.1.03q.055.006.105.006a1.31,1.31,0,0,0,.132-.007.8.8,0,0,0,.121-.021Z" transform="translate(-157.579 -35.445)" fill="#231f20"/>
  <path id="Path_390" data-name="Path 390" d="M193,40.886l.06-.008.06,0,.057,0,.057.008q.008.041.017.112a1.029,1.029,0,0,1,.008.117.566.566,0,0,1,.071-.094.544.544,0,0,1,.1-.084.51.51,0,0,1,.286-.084.444.444,0,0,1,.361.139.629.629,0,0,1,.117.412v.9a.658.658,0,0,1-.069.008l-.069,0-.068,0a.656.656,0,0,1-.068-.008v-.822a.533.533,0,0,0-.061-.288.216.216,0,0,0-.194-.092.4.4,0,0,0-.147.028.327.327,0,0,0-.122.085.428.428,0,0,0-.085.15.683.683,0,0,0-.032.222V42.3a.659.659,0,0,1-.068.008l-.068,0-.069,0A.656.656,0,0,1,193,42.3Z" transform="translate(-167.459 -35.445)" fill="#231f20"/>
  <path id="Path_391" data-name="Path 391" d="M99.7,17.429q.094-.011.228-.021t.261-.01a.922.922,0,0,1,1.043,1.026,1.036,1.036,0,0,1-.265.77,1.109,1.109,0,0,1-.79.251q-.13,0-.258-.01t-.219-.023Zm.283,1.752q.039.006.1.01t.121,0a1.118,1.118,0,0,0,.3-.037.562.562,0,0,0,.232-.126.57.57,0,0,0,.15-.239,1.149,1.149,0,0,0,.053-.377,1.043,1.043,0,0,0-.053-.353.615.615,0,0,0-.148-.239.566.566,0,0,0-.229-.134.988.988,0,0,0-.294-.041h-.115a.735.735,0,0,0-.11.01Z" transform="translate(-86.502 -15.096)" fill="#231f20"/>
  <path id="Path_392" data-name="Path 392" d="M113.682,22.479a.46.46,0,0,0,.121.339.481.481,0,0,0,.34.108,1.026,1.026,0,0,0,.375-.069.412.412,0,0,1,.036.1.649.649,0,0,1,.017.117.933.933,0,0,1-.2.058,1.406,1.406,0,0,1-.243.019.922.922,0,0,1-.333-.054.583.583,0,0,1-.361-.383.984.984,0,0,1-.042-.294,1.024,1.024,0,0,1,.04-.294.658.658,0,0,1,.123-.237.6.6,0,0,1,.21-.16.7.7,0,0,1,.3-.059.627.627,0,0,1,.258.05.524.524,0,0,1,.186.137.591.591,0,0,1,.114.207.841.841,0,0,1,.039.261c0,.026,0,.053,0,.081s0,.053-.006.073Zm.7-.2a.517.517,0,0,0-.021-.148.373.373,0,0,0-.061-.123.3.3,0,0,0-.1-.084.324.324,0,0,0-.148-.032.328.328,0,0,0-.259.1.5.5,0,0,0-.11.284Z" transform="translate(-98.383 -18.803)" fill="#231f20"/>
  <path id="Path_393" data-name="Path 393" d="M85.07,38.24a.119.119,0,0,0-.152-.054c-.184.046-.513.223-.463.554a.519.519,0,0,0,.618.408c.093-.013.127-.032.155-.106a.873.873,0,0,0-.158-.8Z" transform="translate(-73.273 -33.125)" fill="#fff"/>
  <path id="Path_394" data-name="Path 394" d="M83.55,45.744a.765.765,0,0,1-1.048-.575c.039-.011.056-.012.095-.024a.621.621,0,0,0,.834.331c-.006.049-.01.086-.012.116a.319.319,0,0,0,.01.082c.018.031.06.047.122.07Z" transform="translate(-71.583 -39.17)" fill="#231f20"/>
  <path id="Path_395" data-name="Path 395" d="M86.911,40.99a.164.164,0,1,0-.193-.135A.166.166,0,0,0,86.911,40.99Z" transform="translate(-75.239 -35.282)" fill="#231f20"/>
  <path id="Path_396" data-name="Path 396" d="M81.882,44.766l-.066.009c.078-.235.246-.165.31-.1l-.039.038S82.007,44.675,81.882,44.766Z" transform="translate(-70.988 -38.708)" fill="#231f20"/>
</svg>
